<svg version="1" xmlns="http://www.w3.org/2000/svg" width="400" height="400" viewBox="0 0 300.000000 300.000000"><path d="M190.5 57.2c-8.1 28.2-15.1 52-15.5 52.7-.5.8-5.7 2.9-11.6 4.7-23.2 6.8-52.2 15.5-57.9 17.4-3.3 1-7.9 2.2-10.2 2.5-2.4.4-4.3 1.1-4.3 1.6s-1.9.9-4.2.9c-4.5 0-5.6.3-20.8 4.5-6 1.7-12.5 2.7-17.5 2.9-8.3.2-10.8 1.1-21.8 7.5-18 10.5-30.8 38.2-25.2 54.4 1.5 4.4 1.5 5 .1 6.6-1.6 1.8-2 8.7-.7 14.6.5 2.3 1.2 3.1 3.4 3.3 2.6.3 2.7.2 2.7-5.1 0-4.6.3-5.5 2.3-6.6 1.7-.9 3-.9 5.2-.1 7.9 3 29.8-1.7 40-8.7 19.5-13.4 24.7-20.4 25.1-34.2l.2-8.3 3.9-2.2c2.1-1.2 6-3 8.7-4 2.7-1.1 6.5-2.9 8.3-4.2 1.8-1.2 5.2-2.5 7.6-2.9 2.3-.4 5.3-1.4 6.7-2.2 4.4-2.5 53-19.1 53-18 0 2.5-14.3 49.4-15.5 50.7-1.9 2.2-6.5 15.6-6.5 19 0 4.3-3.9 16.2-6.2 18.6-1.7 1.9-2.4 2.1-5.6 1.2-5-1.4-13.9-.5-19.5 2-5.9 2.6-13.3 10-16 16-3 6.6-3 18.8 0 25.4 2.7 6 10.1 13.4 16 16 6.4 2.8 14.7 3.4 21.4 1.4 8.9-2.5 14.1-7.3 23.1-21 2-2.9 7.8-16.8 7.8-18.5 0-1.1.5-3.2 1.2-4.8 1.1-2.8 1.8-7.2 3.7-23.3 1.1-9.7 19.4-90.8 20.7-91.9.5-.5 24-8.8 52.2-18.6L296 88.7V78h-5.6c-4.2 0-15.8 3.1-49 13.1-24 7.2-43.8 12.9-44 12.6-.3-.3 3.8-19.5 9-42.7 6.7-29.5 9.6-44.2 9.6-48.6V6h-10.7l-14.8 51.2zM50.3 163c1.8 0 4 1.1 5.9 3.1 3 2.9 3.1 3.3 2.5 9.4-.4 3.6-1.2 7.6-1.9 9-2.1 3.9-16.5 16.2-22.4 19-7.5 3.5-13.2 3.4-16.9-.5-2.6-2.7-2.7-3.3-2.3-9.3.7-8 4.7-14.6 14.5-23.7 7.6-7.1 9.5-8.1 14.3-7.5 1.9.3 4.8.5 6.3.5zm83.6 75c1.9.5 4.7 2.2 6.3 3.7 2.5 2.4 2.8 3.4 2.8 8.9 0 7.7-1.2 10.6-6.4 16.1-3.4 3.6-4.6 4.3-7.8 4.3-5.4 0-9.8-2.1-13.7-6.5-3.2-3.7-3.3-4.1-2.9-10.6.4-6.7.5-7 5.3-11.9 4.3-4.4 5.4-5 9-5 2.2 0 5.6.4 7.4 1z"/></svg>